<svg width="739" height="66" viewBox="0 0 739 66" fill="none" xmlns="http://www.w3.org/2000/svg">
<path d="M20.8446 43.467C17.9409 43.467 15.2298 42.9337 12.7113 41.867C10.1928 40.7707 7.97053 39.2744 6.04461 37.3781C4.14831 35.4522 2.66683 33.2448 1.60016 30.7559C0.533496 28.2374 0.00016284 25.5411 0.00016284 22.667C0.00016284 19.7929 0.533496 17.1114 1.60016 14.6225C2.69646 12.104 4.19276 9.89662 6.08905 8.00032C8.01498 6.0744 10.2372 4.5781 12.7557 3.51144C15.2742 2.41514 17.9853 1.86699 20.8891 1.86699C23.7335 1.86699 26.4002 2.40033 28.8891 3.46699C31.3779 4.50403 33.5705 5.94107 35.4668 7.7781L34.0002 13.9114C32.6372 11.7188 30.8002 9.9707 28.4891 8.66699C26.2076 7.33366 23.6742 6.66699 20.8891 6.66699C17.9557 6.66699 15.3039 7.39292 12.9335 8.84477C10.5928 10.267 8.72609 12.1929 7.3335 14.6225C5.9409 17.0225 5.24461 19.704 5.24461 22.667C5.24461 25.5707 5.92609 28.2374 7.28905 30.667C8.68164 33.0966 10.5483 35.0374 12.8891 36.4892C15.2594 37.9411 17.9113 38.667 20.8446 38.667C22.5039 38.667 24.0742 38.4744 25.5557 38.0892C27.0668 37.6744 28.4446 37.0966 29.6891 36.3559V25.867H18.6668V21.3337H34.5779V38.9337C32.7705 40.4448 30.6668 41.5855 28.2668 42.3559C25.8965 43.0966 23.4224 43.467 20.8446 43.467ZM43.3502 42.667V0.000324249H48.1502V42.667H43.3502ZM68.8404 43.2003C66.2627 43.2003 63.9071 42.5781 61.7738 41.3337C59.6404 40.0892 57.9367 38.4151 56.6627 36.3114C55.4182 34.2077 54.796 31.8818 54.796 29.3337C54.796 26.7559 55.4182 24.43 56.6627 22.3559C57.9367 20.2522 59.6404 18.5781 61.7738 17.3337C63.9071 16.0892 66.2627 15.467 68.8404 15.467C71.4478 15.467 73.8034 16.0892 75.9071 17.3337C78.0404 18.5781 79.7293 20.2522 80.9738 22.3559C82.2478 24.43 82.8849 26.7559 82.8849 29.3337C82.8849 31.8818 82.2478 34.2077 80.9738 36.3114C79.7293 38.4151 78.0404 40.0892 75.9071 41.3337C73.8034 42.5781 71.4478 43.2003 68.8404 43.2003ZM68.8404 38.667C70.559 38.667 72.1145 38.2522 73.5071 37.4225C74.8997 36.5633 76.0108 35.4374 76.8404 34.0448C77.6701 32.6225 78.0849 31.0522 78.0849 29.3337C78.0849 27.6151 77.6701 26.0596 76.8404 24.667C76.0108 23.2448 74.8997 22.1188 73.5071 21.2892C72.1145 20.43 70.559 20.0003 68.8404 20.0003C67.1219 20.0003 65.5664 20.43 64.1738 21.2892C62.7812 22.1188 61.6701 23.2448 60.8404 24.667C60.0108 26.0596 59.596 27.6151 59.596 29.3337C59.596 31.0522 60.0108 32.6225 60.8404 34.0448C61.6701 35.4374 62.7812 36.5633 64.1738 37.4225C65.5664 38.2522 67.1219 38.667 68.8404 38.667ZM103.36 43.0225C101.523 43.0225 99.8043 42.6818 98.2043 42.0003C96.6043 41.2892 95.1969 40.3411 93.9821 39.1559V42.667H89.5377V0.000324249H94.3377V19.1559C95.5228 18.0596 96.8858 17.2003 98.4266 16.5781C99.9673 15.9559 101.612 15.6448 103.36 15.6448C105.819 15.6448 108.041 16.267 110.027 17.5114C112.041 18.7263 113.641 20.3707 114.827 22.4448C116.041 24.5188 116.649 26.8151 116.649 29.3337C116.649 31.8522 116.041 34.1485 114.827 36.2225C113.641 38.2966 112.041 39.9559 110.027 41.2003C108.041 42.4151 105.819 43.0225 103.36 43.0225ZM102.738 38.667C104.427 38.667 105.952 38.2522 107.315 37.4225C108.708 36.5633 109.804 35.4374 110.604 34.0448C111.434 32.6225 111.849 31.0522 111.849 29.3337C111.849 27.6151 111.434 26.0596 110.604 24.667C109.804 23.2448 108.708 22.1188 107.315 21.2892C105.952 20.43 104.427 20.0003 102.738 20.0003C101.049 20.0003 99.508 20.43 98.1154 21.2892C96.7525 22.1188 95.6562 23.2448 94.8266 24.667C94.0266 26.0596 93.6266 27.6151 93.6266 29.3337C93.6266 31.0522 94.0266 32.6225 94.8266 34.0448C95.6562 35.4374 96.7525 36.5633 98.1154 37.4225C99.508 38.2522 101.049 38.667 102.738 38.667ZM134.71 43.0225C132.28 43.0225 130.058 42.4151 128.043 41.2003C126.028 39.9559 124.414 38.2966 123.199 36.2225C122.014 34.1485 121.421 31.8522 121.421 29.3337C121.421 26.8151 122.014 24.5188 123.199 22.4448C124.414 20.3707 126.028 18.7263 128.043 17.5114C130.058 16.267 132.28 15.6448 134.71 15.6448C136.547 15.6448 138.265 15.9855 139.865 16.667C141.495 17.3485 142.902 18.2966 144.088 19.5114V16.0003H148.532V42.667H144.088V39.1559C142.902 40.3411 141.495 41.2892 139.865 42.0003C138.265 42.6818 136.547 43.0225 134.71 43.0225ZM135.332 38.667C137.021 38.667 138.547 38.2522 139.91 37.4225C141.302 36.5633 142.399 35.4374 143.199 34.0448C144.028 32.6225 144.443 31.0522 144.443 29.3337C144.443 27.6151 144.028 26.0596 143.199 24.667C142.399 23.2448 141.302 22.1188 139.91 21.2892C138.547 20.43 137.021 20.0003 135.332 20.0003C133.643 20.0003 132.102 20.43 130.71 21.2892C129.347 22.1188 128.251 23.2448 127.421 24.667C126.621 26.0596 126.221 27.6151 126.221 29.3337C126.221 31.0522 126.621 32.6225 127.421 34.0448C128.251 35.4374 129.347 36.5633 130.71 37.4225C132.102 38.2522 133.643 38.667 135.332 38.667ZM157.038 42.667V0.000324249H161.838V42.667H157.038ZM170.35 42.667V0.000324249H175.15V42.667H170.35ZM182.552 56.0003L191.218 38.7559L179.929 16.0003H185.352L191.04 27.5559C191.544 28.5929 192.033 29.6151 192.507 30.6225C192.981 31.63 193.455 32.8448 193.929 34.267C194.433 32.8448 194.907 31.63 195.352 30.6225C195.826 29.5855 196.329 28.5633 196.863 27.5559L202.64 16.0003H207.752L187.752 56.0003H182.552ZM373.725 49.3337C375.058 47.6744 376.125 45.7485 376.925 43.5559C377.755 41.3633 378.17 38.8448 378.17 36.0003H382.97C382.97 38.5188 382.614 40.8892 381.903 43.1114C381.221 45.3633 380.273 47.4374 379.058 49.3337H373.725ZM408.683 42.667V2.66699H413.75V38.1337H427.617V42.667H408.683ZM444.903 43.2003C442.325 43.2003 439.97 42.5781 437.836 41.3337C435.703 40.0892 433.999 38.4151 432.725 36.3114C431.481 34.2077 430.858 31.8818 430.858 29.3337C430.858 26.7559 431.481 24.43 432.725 22.3559C433.999 20.2522 435.703 18.5781 437.836 17.3337C439.97 16.0892 442.325 15.467 444.903 15.467C447.51 15.467 449.866 16.0892 451.97 17.3337C454.103 18.5781 455.792 20.2522 457.036 22.3559C458.31 24.43 458.947 26.7559 458.947 29.3337C458.947 31.8818 458.31 34.2077 457.036 36.3114C455.792 38.4151 454.103 40.0892 451.97 41.3337C449.866 42.5781 447.51 43.2003 444.903 43.2003ZM444.903 38.667C446.621 38.667 448.177 38.2522 449.57 37.4225C450.962 36.5633 452.073 35.4374 452.903 34.0448C453.733 32.6225 454.147 31.0522 454.147 29.3337C454.147 27.6151 453.733 26.0596 452.903 24.667C452.073 23.2448 450.962 22.1188 449.57 21.2892C448.177 20.43 446.621 20.0003 444.903 20.0003C443.184 20.0003 441.629 20.43 440.236 21.2892C438.844 22.1188 437.733 23.2448 436.903 24.667C436.073 26.0596 435.658 27.6151 435.658 29.3337C435.658 31.0522 436.073 32.6225 436.903 34.0448C437.733 35.4374 438.844 36.5633 440.236 37.4225C441.629 38.2522 443.184 38.667 444.903 38.667ZM477.867 43.2003C475.259 43.2003 472.889 42.5781 470.756 41.3337C468.622 40.0892 466.919 38.4151 465.645 36.3114C464.371 34.2077 463.733 31.8818 463.733 29.3337C463.733 26.7855 464.371 24.4596 465.645 22.3559C466.919 20.2522 468.622 18.5781 470.756 17.3337C472.889 16.0892 475.259 15.467 477.867 15.467C479.793 15.467 481.6 15.8077 483.289 16.4892C484.978 17.1707 486.459 18.0744 487.733 19.2003L486.267 25.2448C485.526 23.7633 484.4 22.5188 482.889 21.5114C481.408 20.504 479.719 20.0003 477.822 20.0003C476.104 20.0003 474.533 20.43 473.111 21.2892C471.719 22.1188 470.608 23.2448 469.778 24.667C468.948 26.0596 468.533 27.6151 468.533 29.3337C468.533 31.0225 468.948 32.5781 469.778 34.0003C470.608 35.4225 471.719 36.5633 473.111 37.4225C474.533 38.2522 476.104 38.667 477.822 38.667C479.719 38.667 481.408 38.1781 482.889 37.2003C484.4 36.2225 485.526 34.9633 486.267 33.4225L487.733 39.467C486.459 40.5929 484.978 41.4966 483.289 42.1781C481.6 42.8596 479.793 43.2003 477.867 43.2003ZM505.022 43.0225C502.593 43.0225 500.371 42.4151 498.356 41.2003C496.341 39.9559 494.726 38.2966 493.511 36.2225C492.326 34.1485 491.733 31.8522 491.733 29.3337C491.733 26.8151 492.326 24.5188 493.511 22.4448C494.726 20.3707 496.341 18.7263 498.356 17.5114C500.371 16.267 502.593 15.6448 505.022 15.6448C506.859 15.6448 508.578 15.9855 510.178 16.667C511.808 17.3485 513.215 18.2966 514.4 19.5114V16.0003H518.845V42.667H514.4V39.1559C513.215 40.3411 511.808 41.2892 510.178 42.0003C508.578 42.6818 506.859 43.0225 505.022 43.0225ZM505.645 38.667C507.333 38.667 508.859 38.2522 510.222 37.4225C511.615 36.5633 512.711 35.4374 513.511 34.0448C514.341 32.6225 514.756 31.0522 514.756 29.3337C514.756 27.6151 514.341 26.0596 513.511 24.667C512.711 23.2448 511.615 22.1188 510.222 21.2892C508.859 20.43 507.333 20.0003 505.645 20.0003C503.956 20.0003 502.415 20.43 501.022 21.2892C499.659 22.1188 498.563 23.2448 497.733 24.667C496.933 26.0596 496.533 27.6151 496.533 29.3337C496.533 31.0522 496.933 32.6225 497.733 34.0448C498.563 35.4374 499.659 36.5633 501.022 37.4225C502.415 38.2522 503.956 38.667 505.645 38.667ZM527.35 42.667V0.000324249H532.15V42.667H527.35ZM540.663 42.667V0.000324249H545.463V42.667H540.663ZM552.864 56.0003L561.531 38.7559L550.242 16.0003H555.664L561.353 27.5559C561.857 28.5929 562.346 29.6151 562.82 30.6225C563.294 31.63 563.768 32.8448 564.242 34.267C564.746 32.8448 565.22 31.63 565.664 30.6225C566.138 29.5855 566.642 28.5633 567.175 27.5559L572.953 16.0003H578.064L558.064 56.0003H552.864Z" fill="black" fill-opacity="0.75"/>
<path d="M227.392 43.435C226.752 43.0937 226.261 42.6243 225.92 42.027C225.579 41.4297 225.408 40.5123 225.408 39.275C225.408 38.379 225.643 37.4403 226.112 36.459C226.624 35.435 227.2 34.4537 227.84 33.515C228.523 32.5337 229.099 31.659 229.568 30.891C231.189 28.2457 232.811 25.579 234.432 22.891C236.096 20.1603 237.568 17.515 238.848 14.955C240.171 12.395 241.088 10.0483 241.6 7.91499C242.325 7.91499 242.816 8.14966 243.072 8.61899C243.328 9.08832 243.456 9.62166 243.456 10.219C243.499 10.8163 243.499 11.307 243.456 11.691C243.413 12.3737 243.072 13.419 242.432 14.827C241.835 16.235 241.088 17.771 240.192 19.435C239.296 21.099 238.4 22.6777 237.504 24.171C236.651 25.6643 235.968 26.8163 235.456 27.627C234.645 28.8217 233.792 30.2083 232.896 31.787C232.043 33.323 231.232 34.8377 230.464 36.331C229.653 37.867 228.949 39.2963 228.352 40.619C227.797 41.899 227.477 42.8377 227.392 43.435ZM235.101 43.051C236.936 39.6377 238.45 36.3523 239.645 33.195C240.882 29.995 242.29 26.7737 243.869 23.531C244.338 22.6777 244.936 22.1017 245.661 21.803C246.386 21.4617 247.09 21.291 247.773 21.291C248.328 21.291 248.818 21.355 249.245 21.483C249.117 21.7817 248.776 22.379 248.221 23.275C247.709 24.1283 247.154 25.1097 246.557 26.219C246.13 26.987 245.49 28.1817 244.637 29.803C243.784 31.3817 242.994 33.0243 242.269 34.731C242.653 34.2617 243.25 33.4937 244.061 32.427C244.872 31.3603 245.81 30.2083 246.877 28.971C247.944 27.691 249.053 26.475 250.205 25.323C251.4 24.1283 252.552 23.1683 253.661 22.443C254.813 21.675 255.837 21.291 256.733 21.291C257.416 21.291 258.013 21.5043 258.525 21.931C259.037 22.3577 259.293 22.9337 259.293 23.659C259.293 24.7257 258.845 25.9843 257.949 27.435C257.053 28.843 256.157 30.2297 255.261 31.595C255.09 31.851 254.77 32.3417 254.301 33.067C253.874 33.7923 253.405 34.6243 252.893 35.563C252.381 36.459 251.933 37.3337 251.549 38.187C251.208 38.9977 251.037 39.6377 251.037 40.107C251.037 40.5763 251.229 40.811 251.613 40.811C252.424 40.811 253.256 40.491 254.109 39.851C255.005 39.211 255.858 38.4857 256.669 37.675C257.48 36.8217 258.12 36.1177 258.589 35.563C259.058 35.051 259.485 34.5603 259.869 34.091C260.253 33.6217 260.637 33.1737 261.021 32.747C261.149 32.619 261.256 32.555 261.341 32.555C261.597 32.555 261.725 32.747 261.725 33.131C261.725 33.387 261.64 33.6003 261.469 33.771C261 34.3257 260.53 34.9017 260.061 35.499C259.592 36.0537 259.101 36.6083 258.589 37.163C258.12 37.7177 257.629 38.2723 257.117 38.827C256.648 39.339 256.157 39.8297 255.645 40.299C253.81 42.0057 252.104 42.859 250.525 42.859C249.458 42.859 248.733 42.539 248.349 41.899C248.008 41.259 247.837 40.4697 247.837 39.531C247.837 38.507 248.114 37.3977 248.669 36.203C249.224 35.0083 249.906 33.7923 250.717 32.555C251.528 31.275 252.338 30.0377 253.149 28.843C254.002 27.6483 254.706 26.5603 255.261 25.579C255.816 24.555 256.093 23.7017 256.093 23.019C256.093 22.763 255.944 22.635 255.645 22.635C255.389 22.635 254.877 22.955 254.109 23.595C253.384 24.1923 252.594 24.9177 251.741 25.771C250.888 26.5817 250.077 27.371 249.309 28.139C248.584 28.907 248.093 29.4617 247.837 29.803C246.77 30.955 245.725 32.1923 244.701 33.515C243.72 34.8377 242.781 36.1177 241.885 37.355C241.373 38.0803 240.925 38.827 240.541 39.595C240.157 40.3203 239.73 41.0883 239.261 41.899C239.048 42.283 238.749 42.5177 238.365 42.603C238.024 42.6457 237.554 42.6883 236.957 42.731C236.53 42.731 236.189 42.731 235.933 42.731C235.677 42.7737 235.4 42.8803 235.101 43.051ZM266.65 44.139C265.029 44.139 263.322 43.4777 261.53 42.155C260.762 41.6003 260.101 40.8323 259.546 39.851C259.248 39.339 259.098 38.7843 259.098 38.187C259.098 37.5043 259.333 37.163 259.802 37.163C260.016 37.163 260.272 37.355 260.57 37.739C260.912 38.0803 261.21 38.5283 261.466 39.083C261.85 39.9363 262.256 40.683 262.682 41.323C263.109 41.9203 263.792 42.219 264.73 42.219C265.584 42.219 266.288 41.7283 266.842 40.747C267.397 39.7657 267.824 38.507 268.122 36.971C268.464 35.435 268.698 33.8137 268.826 32.107C268.997 30.4003 269.104 28.843 269.146 27.435C269.189 25.9843 269.232 24.875 269.274 24.107C267.269 26.539 265.37 28.843 263.578 31.019C261.829 33.1523 260.165 35.1577 258.586 37.035C258.416 37.2483 258.266 37.355 258.138 37.355C258.01 37.355 257.946 37.227 257.946 36.971C257.946 36.5017 258.053 36.1177 258.266 35.819C259.12 34.795 260.058 33.6643 261.082 32.427C262.106 31.147 263.13 29.867 264.154 28.587C265.221 27.307 266.16 26.1763 266.97 25.195C267.824 24.171 268.442 23.403 268.826 22.891C268.826 21.611 269.125 20.6083 269.722 19.883C270.32 19.115 271.045 18.5603 271.898 18.219C272.752 17.8777 273.562 17.707 274.33 17.707C275.056 17.707 275.589 17.7923 275.93 17.963C276.229 18.091 276.378 18.2403 276.378 18.411C276.378 18.539 276.165 18.667 275.738 18.795C274.714 19.051 273.989 19.6057 273.562 20.459C273.136 21.2697 272.858 22.2723 272.73 23.467C272.645 24.619 272.602 25.8563 272.602 27.179C272.602 29.1417 272.517 31.211 272.346 33.387C272.176 35.563 271.898 37.3977 271.514 38.891C271.429 39.1897 271.301 39.5097 271.13 39.851C271.002 40.1923 270.874 40.5337 270.746 40.875C271.941 40.0217 273.114 39.1043 274.266 38.123C275.418 37.099 276.314 36.2457 276.954 35.563C277.424 35.0937 277.829 34.6457 278.17 34.219C278.554 33.7497 278.938 33.2803 279.322 32.811C279.408 32.683 279.514 32.619 279.642 32.619C279.898 32.619 280.026 32.7897 280.026 33.131C280.026 33.3443 279.92 33.5577 279.706 33.771C278.81 34.8377 277.893 35.9683 276.954 37.163C276.058 38.3577 275.056 39.403 273.946 40.299C273.477 40.683 272.88 41.1737 272.154 41.771C271.429 42.3683 270.704 42.859 269.978 43.243C268.784 43.8403 267.674 44.139 266.65 44.139ZM270.686 64.939C270.601 65.2803 270.43 65.259 270.174 64.875C269.876 64.5337 269.62 63.9577 269.406 63.147C269.193 62.3363 269.086 61.4403 269.086 60.459C269.086 59.691 269.172 58.987 269.342 58.347C269.812 56.3417 270.516 54.059 271.454 51.499C272.393 48.9817 273.46 46.3577 274.654 43.627C275.806 40.939 277.022 38.2937 278.302 35.691C279.582 33.0457 280.82 30.6137 282.014 28.395C283.252 26.1763 284.361 24.3417 285.342 22.891C286.921 20.459 288.286 18.7523 289.438 17.771C290.59 16.747 291.593 16.107 292.446 15.851C293.342 15.595 294.132 15.403 294.814 15.275C292.212 18.5177 289.716 22.0377 287.326 25.835C284.98 29.6323 282.59 33.9417 280.158 38.763C281.268 37.0563 282.484 35.2003 283.806 33.195C285.172 31.147 286.58 29.227 288.03 27.435C289.438 25.6857 290.825 24.235 292.19 23.083C293.598 21.8883 294.772 21.291 295.71 21.291C296.948 21.291 297.78 21.6537 298.206 22.379C298.676 23.1043 298.91 23.9577 298.91 24.939C298.91 26.3043 298.633 27.819 298.078 29.483C297.524 31.1043 296.734 32.7683 295.71 34.475C294.729 36.139 293.556 37.6963 292.19 39.147C290.868 40.555 289.417 41.7283 287.838 42.667C289.332 42.3257 290.676 41.899 291.87 41.387C293.065 40.875 294.26 40.171 295.454 39.275C296.649 38.3363 297.95 37.099 299.358 35.563C299.828 35.0937 300.297 34.5817 300.766 34.027C301.278 33.4297 301.705 32.8963 302.046 32.427C302.174 32.299 302.281 32.235 302.366 32.235C302.622 32.235 302.75 32.427 302.75 32.811C302.75 33.067 302.665 33.2803 302.494 33.451C302.068 34.0057 301.556 34.6243 300.958 35.307C300.404 35.947 299.87 36.5657 299.358 37.163C297.865 38.699 296.222 40.0643 294.43 41.259C292.681 42.411 290.676 43.2857 288.414 43.883C286.878 44.267 285.193 44.459 283.358 44.459C282.974 44.459 282.59 44.4377 282.206 44.395C281.822 44.395 281.46 44.3737 281.118 44.331C280.521 44.2883 279.945 44.1177 279.39 43.819C278.836 43.563 278.537 43.051 278.494 42.283C276.489 46.4643 274.91 50.475 273.758 54.315C272.606 58.1977 271.582 61.739 270.686 64.939ZM281.886 43.243C283.209 43.243 284.596 42.6883 286.046 41.579C287.54 40.4697 288.926 39.0403 290.206 37.291C291.529 35.499 292.617 33.579 293.47 31.531C293.94 30.4643 294.366 29.2483 294.75 27.883C295.177 26.475 295.39 25.3443 295.39 24.491C295.39 23.6377 295.156 23.211 294.686 23.211C294.132 23.211 293.406 23.6377 292.51 24.491C291.657 25.3443 290.526 26.5817 289.118 28.203C288.649 28.7577 288.052 29.5257 287.326 30.507C286.644 31.4883 285.918 32.5337 285.15 33.643C284.425 34.7097 283.764 35.7123 283.166 36.651C282.569 37.5897 282.121 38.315 281.822 38.827C281.566 39.2963 281.289 39.851 280.99 40.491C280.734 41.0883 280.606 41.6217 280.606 42.091C280.606 42.859 281.033 43.243 281.886 43.243ZM312.837 17.387C312.368 17.387 311.984 17.2377 311.685 16.939C311.387 16.5977 311.237 16.2137 311.237 15.787C311.237 15.147 311.451 14.6137 311.877 14.187C312.347 13.7177 312.859 13.483 313.413 13.483C313.968 13.483 314.395 13.675 314.693 14.059C315.035 14.4003 315.163 14.8483 315.077 15.403C314.949 15.9577 314.672 16.427 314.245 16.811C313.861 17.195 313.392 17.387 312.837 17.387ZM304.069 42.667C303.131 42.667 302.32 42.3683 301.637 41.771C300.955 41.131 300.613 40.0643 300.613 38.571C300.613 37.931 300.677 37.227 300.805 36.459C301.189 34.4537 301.808 32.5337 302.661 30.699C303.557 28.8643 304.411 27.2857 305.221 25.963C306.075 24.5977 306.629 23.7017 306.885 23.275C307.099 22.8483 307.653 22.443 308.549 22.059C309.445 21.6323 310.192 21.419 310.789 21.419C311.301 21.419 311.557 21.5897 311.557 21.931C311.557 22.2297 311.451 22.507 311.237 22.763C310.597 23.787 309.851 24.9603 308.997 26.283C308.187 27.563 307.397 28.9283 306.629 30.379C305.861 31.8297 305.221 33.259 304.709 34.667C304.197 36.075 303.941 37.3763 303.941 38.571C303.941 39.211 304.048 39.723 304.261 40.107C304.517 40.491 304.965 40.683 305.605 40.683C306.288 40.683 307.077 40.363 307.973 39.723C308.869 39.0403 309.723 38.2937 310.533 37.483C311.387 36.6297 312.005 35.9683 312.389 35.499C312.816 35.0297 313.221 34.5817 313.605 34.155C314.032 33.7283 314.416 33.2803 314.757 32.811C314.885 32.683 314.992 32.619 315.077 32.619C315.333 32.619 315.461 32.811 315.461 33.195C315.461 33.4083 315.376 33.6003 315.205 33.771C314.736 34.3257 314.267 34.9017 313.797 35.499C313.328 36.0537 312.837 36.6083 312.325 37.163C311.643 37.9737 310.875 38.8057 310.021 39.659C309.168 40.5123 308.251 41.2377 307.269 41.835C306.288 42.3897 305.221 42.667 304.069 42.667ZM322.573 42.987C321.763 42.987 321.08 42.7097 320.525 42.155C319.971 41.6003 319.693 40.811 319.693 39.787C319.693 39.3177 319.736 38.891 319.821 38.507C319.907 38.0803 320.013 37.7177 320.141 37.419C320.355 36.779 320.76 35.947 321.357 34.923C321.955 33.899 322.616 32.8323 323.341 31.723C324.067 30.571 324.685 29.547 325.197 28.651C325.837 27.5417 326.157 26.5817 326.157 25.771C326.157 24.875 325.773 24.171 325.005 23.659C324.707 23.4457 324.408 23.2537 324.109 23.083C323.811 22.8697 323.555 22.6777 323.341 22.507L321.549 25.387C320.525 26.795 319.459 28.2457 318.349 29.739C317.24 31.2323 316.173 32.619 315.149 33.899C314.125 35.1363 313.251 36.1817 312.525 37.035C312.397 37.163 312.269 37.227 312.141 37.227C311.928 37.227 311.757 37.1203 311.629 36.907C311.501 36.6937 311.523 36.5017 311.693 36.331C313.357 34.4537 314.957 32.5337 316.493 30.571C318.029 28.6083 319.459 26.5177 320.781 24.299L322.317 21.675C322.147 21.547 321.869 21.2697 321.485 20.843C321.144 20.4163 320.803 19.947 320.461 19.435C320.163 18.8803 320.013 18.411 320.013 18.027C320.013 17.6857 320.12 17.4297 320.333 17.259C320.589 17.0457 321.016 16.939 321.613 16.939C323.064 16.939 323.768 18.4963 323.725 21.611C324.323 22.0803 324.984 22.443 325.709 22.699C326.435 22.955 327.117 23.211 327.757 23.467C328.44 23.6803 328.995 24.0003 329.421 24.427C329.848 24.8537 330.061 25.4937 330.061 26.347C330.061 27.0723 329.848 27.9257 329.421 28.907C329.037 29.8457 328.568 30.6777 328.013 31.403C327.544 32.043 326.989 32.811 326.349 33.707C325.752 34.603 325.176 35.499 324.621 36.395C324.067 37.291 323.661 38.1017 323.405 38.827C323.192 39.3817 323.085 39.787 323.085 40.043C323.085 40.5977 323.341 40.875 323.853 40.875C324.323 40.875 324.899 40.683 325.581 40.299C326.477 39.8297 327.395 39.1683 328.333 38.315C329.315 37.419 330.211 36.5017 331.021 35.563C331.491 35.0937 331.917 34.6457 332.301 34.219C332.685 33.7497 333.048 33.2803 333.389 32.811C333.517 32.683 333.624 32.619 333.709 32.619C333.965 32.619 334.093 32.811 334.093 33.195C334.093 33.4083 334.008 33.6003 333.837 33.771C332.941 34.8377 332.024 35.9683 331.085 37.163C330.147 38.315 329.144 39.3603 328.077 40.299C327.437 40.811 326.605 41.387 325.581 42.027C324.557 42.667 323.555 42.987 322.573 42.987ZM337.357 43.627C335.778 43.627 334.52 43.179 333.581 42.283C332.642 41.3443 332.173 40.043 332.173 38.379C332.173 37.099 332.408 35.755 332.877 34.347C333.389 32.939 333.88 31.8297 334.349 31.019C335.33 29.227 336.504 27.5843 337.869 26.091C339.277 24.5977 340.706 23.403 342.157 22.507C343.65 21.5683 345.016 21.099 346.253 21.099C347.405 21.099 348.386 21.419 349.197 22.059C350.05 22.699 350.477 23.5523 350.477 24.619C350.477 25.0457 350.37 25.5363 350.157 26.091C349.944 26.6457 349.602 27.2217 349.133 27.819C347.426 29.995 345.528 31.7017 343.437 32.939C341.389 34.1337 339.042 35.0297 336.397 35.627C336.226 36.1817 336.077 36.7363 335.949 37.291C335.821 37.803 335.714 38.2937 335.629 38.763C335.586 38.9763 335.544 39.1897 335.501 39.403C335.501 39.5737 335.501 39.7657 335.501 39.979C335.501 40.8323 335.693 41.451 336.077 41.835C336.504 42.1763 337.016 42.347 337.613 42.347C338.552 42.347 339.554 42.1123 340.621 41.643C341.688 41.131 342.69 40.555 343.629 39.915C344.568 39.275 345.272 38.763 345.741 38.379C346.21 37.9523 346.658 37.5257 347.085 37.099C347.554 36.6297 348.066 36.1177 348.621 35.563C349.048 35.0937 349.453 34.6457 349.837 34.219C350.221 33.7497 350.584 33.2803 350.925 32.811C351.053 32.683 351.16 32.619 351.245 32.619C351.501 32.619 351.629 32.811 351.629 33.195C351.629 33.4083 351.544 33.6003 351.373 33.771C350.605 34.7097 349.837 35.6483 349.069 36.587C348.301 37.483 347.512 38.3577 346.701 39.211C345.762 40.1923 344.461 41.1737 342.797 42.155C341.176 43.1363 339.362 43.627 337.357 43.627ZM336.781 34.795C337.89 34.3257 339.17 33.643 340.621 32.747C342.114 31.851 343.544 30.7843 344.909 29.547C346.317 28.267 347.469 26.9017 348.365 25.451C348.664 24.9817 348.813 24.555 348.813 24.171C348.813 23.5737 348.472 23.275 347.789 23.275C347.32 23.275 346.744 23.4457 346.061 23.787C343.928 24.939 342.093 26.4963 340.557 28.459C339.021 30.4217 337.762 32.5337 336.781 34.795ZM353.13 42.923C351.722 42.923 350.741 42.5817 350.186 41.899C349.632 41.2163 349.354 40.3843 349.354 39.403C349.354 38.123 349.653 36.7577 350.25 35.307C350.89 33.8563 351.445 32.7257 351.914 31.915C353.066 30.0803 354.432 28.331 356.01 26.667C357.589 25.003 359.253 23.659 361.002 22.635C362.794 21.5683 364.501 21.035 366.122 21.035C367.232 21.035 368.32 21.291 369.386 21.803C369.6 21.3337 369.792 20.9283 369.962 20.587C370.133 20.203 370.304 19.8403 370.474 19.499C371.968 16.8537 373.226 14.6137 374.25 12.779C375.317 10.9443 376.448 9.51499 377.642 8.49099C378.88 7.42432 380.48 6.78432 382.442 6.57099C381.29 8.10699 380.288 9.49366 379.434 10.731C378.581 11.9683 377.77 13.227 377.002 14.507C376.234 15.7443 375.445 17.1097 374.634 18.603C373.824 20.0963 372.906 21.867 371.882 23.915C371.968 24.171 372.01 24.3417 372.01 24.427C372.01 24.7257 371.904 24.9817 371.69 25.195C371.52 25.3657 371.328 25.451 371.114 25.451C370.218 27.243 369.344 29.0563 368.49 30.891C367.68 32.683 366.997 34.347 366.442 35.883C365.93 37.3763 365.674 38.5497 365.674 39.403C365.674 40.299 365.994 40.747 366.634 40.747C367.018 40.747 367.488 40.5977 368.042 40.299C368.981 39.8297 369.92 39.1683 370.858 38.315C371.84 37.419 372.736 36.5017 373.546 35.563C374.016 35.0937 374.442 34.6457 374.826 34.219C375.21 33.7497 375.573 33.2803 375.914 32.811C376.042 32.683 376.149 32.619 376.234 32.619C376.49 32.619 376.618 32.7897 376.618 33.131C376.618 33.387 376.533 33.6003 376.362 33.771C375.637 34.7097 374.89 35.6483 374.122 36.587C373.354 37.483 372.544 38.3577 371.69 39.211C371.52 39.3817 371.349 39.5737 371.178 39.787C371.008 39.9577 370.816 40.1283 370.602 40.299C369.706 41.0243 368.789 41.643 367.85 42.155C366.954 42.667 366.144 42.923 365.418 42.923C364.352 42.923 363.626 42.603 363.242 41.963C362.901 41.2803 362.73 40.491 362.73 39.595C362.73 38.9977 362.773 38.379 362.858 37.739C362.986 37.099 363.136 36.5443 363.306 36.075C363.434 35.6057 363.584 35.0723 363.754 34.475C363.968 33.8777 364.202 33.2803 364.458 32.683C363.52 34.1337 362.453 35.6483 361.258 37.227C360.064 38.8057 358.784 40.1497 357.418 41.259C356.053 42.3683 354.624 42.923 353.13 42.923ZM353.514 41.323C354.24 41.323 355.306 40.7897 356.714 39.723C357.738 38.9123 358.805 37.931 359.914 36.779C361.024 35.5843 362.048 34.4323 362.986 33.323C363.968 32.171 364.714 31.275 365.226 30.635C365.738 29.3977 366.293 28.1177 366.89 26.795C367.53 25.4297 368.192 24.0857 368.874 22.763C368.533 22.5923 368.128 22.507 367.658 22.507C366.592 22.507 365.354 22.9977 363.946 23.979C362.581 24.9177 361.258 26.0697 359.978 27.435C358.528 28.971 357.205 30.635 356.01 32.427C354.816 34.1763 353.92 35.7763 353.322 37.227C353.024 37.867 352.81 38.443 352.682 38.955C352.597 39.4243 352.554 39.8297 352.554 40.171C352.554 40.939 352.874 41.323 353.514 41.323ZM599.152 43.435C598.512 43.0937 598.022 42.6243 597.68 42.027C597.382 41.4297 597.232 40.5123 597.232 39.275C597.232 38.3363 597.446 37.419 597.872 36.523C598.342 35.5843 598.875 34.6883 599.472 33.835C600.07 32.939 600.603 32.107 601.072 31.339C600.134 31.083 599.494 30.571 599.152 29.803C598.811 29.035 598.683 28.5017 598.768 28.203C599.152 28.331 599.707 28.4377 600.432 28.523C601.158 28.6083 601.926 28.6723 602.736 28.715C604.23 26.283 605.702 23.851 607.152 21.419C608.603 18.987 609.883 16.619 610.992 14.315C612.102 12.011 612.891 9.87766 613.36 7.91499C614.086 7.91499 614.576 8.14966 614.832 8.61899C615.088 9.08832 615.216 9.62166 615.216 10.219C615.259 10.8163 615.259 11.307 615.216 11.691C615.174 12.3737 614.832 13.419 614.192 14.827C613.595 16.235 612.848 17.771 611.952 19.435C611.056 21.099 610.16 22.6777 609.264 24.171C608.411 25.6643 607.728 26.8163 607.216 27.627L606.512 28.715C607.707 28.6723 609.03 28.6083 610.48 28.523C611.974 28.4377 613.424 28.3523 614.832 28.267C616.283 28.139 617.563 28.0537 618.672 28.011C620.123 25.707 621.531 23.3817 622.896 21.035C624.304 18.6457 625.542 16.3417 626.608 14.123C627.718 11.8617 628.486 9.79232 628.912 7.91499C629.638 7.91499 630.128 8.14966 630.384 8.61899C630.64 9.08832 630.768 9.62166 630.768 10.219C630.811 10.8163 630.811 11.307 630.768 11.691C630.768 12.3737 630.448 13.419 629.808 14.827C629.211 16.235 628.464 17.771 627.568 19.435C626.672 21.099 625.776 22.6777 624.88 24.171C624.027 25.6643 623.323 26.8163 622.768 27.627L622.512 28.011C623.494 28.1817 624.134 28.5443 624.432 29.099C624.731 29.6537 624.88 30.2083 624.88 30.763C624.71 30.5497 624.262 30.4003 623.536 30.315C622.854 30.187 622.107 30.1017 621.296 30.059C620.742 30.9977 620.144 32.0217 619.504 33.131C618.907 34.1977 618.331 35.2643 617.776 36.331C616.966 37.867 616.283 39.2963 615.728 40.619C615.174 41.899 614.854 42.8377 614.768 43.435C614.086 43.0937 613.574 42.6243 613.232 42.027C612.934 41.4297 612.784 40.5123 612.784 39.275C612.784 38.379 613.019 37.4403 613.488 36.459C614 35.435 614.576 34.4537 615.216 33.515C615.899 32.5337 616.475 31.659 616.944 30.891C617.115 30.5923 617.286 30.315 617.456 30.059C614.854 30.187 612.464 30.3577 610.288 30.571C608.155 30.7843 606.406 30.9763 605.04 31.147C604.571 31.9577 604.102 32.811 603.632 33.707C603.163 34.603 602.694 35.4777 602.224 36.331C601.414 37.867 600.731 39.2963 600.176 40.619C599.622 41.899 599.28 42.8377 599.152 43.435ZM630.794 43.627C629.216 43.627 627.957 43.179 627.018 42.283C626.08 41.3443 625.61 40.043 625.61 38.379C625.61 37.099 625.845 35.755 626.314 34.347C626.826 32.939 627.317 31.8297 627.786 31.019C628.768 29.227 629.941 27.5843 631.306 26.091C632.714 24.5977 634.144 23.403 635.594 22.507C637.088 21.5683 638.453 21.099 639.69 21.099C640.842 21.099 641.824 21.419 642.634 22.059C643.488 22.699 643.914 23.5523 643.914 24.619C643.914 25.0457 643.808 25.5363 643.594 26.091C643.381 26.6457 643.04 27.2217 642.57 27.819C640.864 29.995 638.965 31.7017 636.874 32.939C634.826 34.1337 632.48 35.0297 629.834 35.627C629.664 36.1817 629.514 36.7363 629.386 37.291C629.258 37.803 629.152 38.2937 629.066 38.763C629.024 38.9763 628.981 39.1897 628.938 39.403C628.938 39.5737 628.938 39.7657 628.938 39.979C628.938 40.8323 629.13 41.451 629.514 41.835C629.941 42.1763 630.453 42.347 631.05 42.347C631.989 42.347 632.992 42.1123 634.058 41.643C635.125 41.131 636.128 40.555 637.066 39.915C638.005 39.275 638.709 38.763 639.178 38.379C639.648 37.9523 640.096 37.5257 640.522 37.099C640.992 36.6297 641.504 36.1177 642.058 35.563C642.485 35.0937 642.89 34.6457 643.274 34.219C643.658 33.7497 644.021 33.2803 644.362 32.811C644.49 32.683 644.597 32.619 644.682 32.619C644.938 32.619 645.066 32.811 645.066 33.195C645.066 33.4083 644.981 33.6003 644.81 33.771C644.042 34.7097 643.274 35.6483 642.506 36.587C641.738 37.483 640.949 38.3577 640.138 39.211C639.2 40.1923 637.898 41.1737 636.234 42.155C634.613 43.1363 632.8 43.627 630.794 43.627ZM630.218 34.795C631.328 34.3257 632.608 33.643 634.058 32.747C635.552 31.851 636.981 30.7843 638.346 29.547C639.754 28.267 640.906 26.9017 641.802 25.451C642.101 24.9817 642.25 24.555 642.25 24.171C642.25 23.5737 641.909 23.275 641.226 23.275C640.757 23.275 640.181 23.4457 639.498 23.787C637.365 24.939 635.53 26.4963 633.994 28.459C632.458 30.4217 631.2 32.5337 630.218 34.795ZM645.992 42.923C644.584 42.923 643.603 42.5817 643.048 41.899C642.493 41.2163 642.216 40.3843 642.216 39.403C642.216 38.123 642.515 36.7577 643.112 35.307C643.752 33.8563 644.307 32.7257 644.776 31.915C645.928 30.0803 647.293 28.331 648.872 26.667C650.451 25.003 652.115 23.659 653.864 22.635C655.656 21.5683 657.363 21.035 658.984 21.035C659.837 21.035 660.669 21.1843 661.48 21.483C662.291 21.739 663.08 22.187 663.848 22.827C664.232 23.1257 664.488 23.4243 664.616 23.723C664.787 23.979 664.872 24.2137 664.872 24.427C664.872 25.067 664.595 25.387 664.04 25.387C663.656 25.387 663.379 25.131 663.208 24.619C662.653 23.1683 661.757 22.443 660.52 22.443C659.453 22.443 658.237 22.9337 656.872 23.915C655.507 24.8963 654.163 26.0697 652.84 27.435C651.389 28.971 650.067 30.635 648.872 32.427C647.677 34.1763 646.781 35.7763 646.184 37.227C645.885 37.867 645.672 38.443 645.544 38.955C645.459 39.4243 645.416 39.8297 645.416 40.171C645.416 40.939 645.736 41.323 646.376 41.323C647.101 41.323 648.168 40.7897 649.576 39.723C650.6 38.9123 651.645 37.931 652.712 36.779C653.821 35.627 654.845 34.4963 655.784 33.387C656.723 32.235 657.469 31.339 658.024 30.699C658.237 30.3577 658.429 30.0377 658.6 29.739C658.813 29.4403 659.005 29.1843 659.176 28.971C659.347 28.7577 659.624 28.587 660.008 28.459C660.435 28.331 660.861 28.267 661.288 28.267C661.8 28.267 662.227 28.3523 662.568 28.523C662.909 28.6937 662.973 28.9923 662.76 29.419C662.76 29.4617 662.525 29.9097 662.056 30.763C661.587 31.5737 661.032 32.555 660.392 33.707C659.795 34.859 659.261 35.9683 658.792 37.035C658.536 37.6323 658.323 38.187 658.152 38.699C657.981 39.211 657.896 39.6377 657.896 39.979C657.896 40.5337 658.109 40.811 658.536 40.811C658.835 40.811 659.283 40.6403 659.88 40.299C660.819 39.8297 661.757 39.147 662.696 38.251C663.677 37.355 664.573 36.4377 665.384 35.499C665.853 35.0297 666.28 34.5817 666.664 34.155C667.048 33.7283 667.411 33.2803 667.752 32.811C667.88 32.683 667.987 32.619 668.072 32.619C668.328 32.619 668.456 32.811 668.456 33.195C668.456 33.4083 668.371 33.6003 668.2 33.771C667.731 34.3257 667.261 34.9017 666.792 35.499C666.323 36.0537 665.832 36.6083 665.32 37.163C664.851 37.7177 664.36 38.2723 663.848 38.827C663.379 39.339 662.888 39.8297 662.376 40.299C660.541 42.0057 658.856 42.859 657.32 42.859C656.637 42.859 656.061 42.6243 655.592 42.155C655.123 41.643 654.888 40.8537 654.888 39.787C654.888 38.9763 655.037 38.059 655.336 37.035C655.421 36.5657 655.549 36.0963 655.72 35.627C655.933 35.1577 656.125 34.667 656.296 34.155C655.443 35.5203 654.461 36.8857 653.352 38.251C652.285 39.5737 651.133 40.683 649.896 41.579C648.659 42.475 647.357 42.923 645.992 42.923ZM669.045 42.859C668.235 42.859 667.552 42.603 666.997 42.091C666.443 41.5363 666.165 40.5977 666.165 39.275C666.165 38.9763 666.187 38.6563 666.229 38.315C666.272 37.931 666.336 37.5257 666.421 37.099C666.635 35.947 667.083 34.475 667.765 32.683C668.448 30.891 669.259 28.9923 670.197 26.987C671.136 24.939 672.096 22.9763 673.077 21.099C674.059 19.179 674.955 17.5363 675.765 16.171C677.344 13.5683 678.816 11.563 680.181 10.155C681.547 8.74699 682.763 7.78699 683.829 7.27499C684.896 6.76299 685.792 6.52833 686.517 6.57099C685.408 7.80832 684.192 9.32299 682.869 11.115C681.547 12.907 680.139 15.0617 678.645 17.579C676.768 20.8217 675.125 23.7657 673.717 26.411C672.352 29.0563 671.179 31.7657 670.197 34.539C669.643 36.1603 669.365 37.483 669.365 38.507C669.365 39.9577 669.856 40.683 670.837 40.683C671.605 40.683 672.459 40.299 673.397 39.531C674.379 38.763 675.147 38.0803 675.701 37.483C676.555 36.6297 677.301 35.8403 677.941 35.115C678.624 34.347 679.285 33.579 679.925 32.811C680.053 32.683 680.16 32.619 680.245 32.619C680.501 32.619 680.629 32.811 680.629 33.195C680.629 33.4083 680.544 33.6003 680.373 33.771C679.904 34.3257 679.435 34.9017 678.965 35.499C678.539 36.0537 678.069 36.6083 677.557 37.163C677.131 37.7177 676.64 38.2723 676.085 38.827C675.573 39.339 675.061 39.8297 674.549 40.299C673.824 40.9817 672.949 41.579 671.925 42.091C670.901 42.603 669.941 42.859 669.045 42.859ZM691.087 17.387C690.618 17.387 690.234 17.2377 689.935 16.939C689.637 16.5977 689.487 16.2137 689.487 15.787C689.487 15.147 689.701 14.6137 690.127 14.187C690.597 13.7177 691.109 13.483 691.663 13.483C692.218 13.483 692.645 13.675 692.943 14.059C693.285 14.4003 693.413 14.8483 693.327 15.403C693.199 15.9577 692.922 16.427 692.495 16.811C692.111 17.195 691.642 17.387 691.087 17.387ZM682.319 42.667C681.381 42.667 680.57 42.3683 679.887 41.771C679.205 41.131 678.863 40.0643 678.863 38.571C678.863 37.931 678.927 37.227 679.055 36.459C679.439 34.4537 680.058 32.5337 680.911 30.699C681.807 28.8643 682.661 27.2857 683.471 25.963C684.325 24.5977 684.879 23.7017 685.135 23.275C685.349 22.8483 685.903 22.443 686.799 22.059C687.695 21.6323 688.442 21.419 689.039 21.419C689.551 21.419 689.807 21.5897 689.807 21.931C689.807 22.2297 689.701 22.507 689.487 22.763C688.847 23.787 688.101 24.9603 687.247 26.283C686.437 27.563 685.647 28.9283 684.879 30.379C684.111 31.8297 683.471 33.259 682.959 34.667C682.447 36.075 682.191 37.3763 682.191 38.571C682.191 39.211 682.298 39.723 682.511 40.107C682.767 40.491 683.215 40.683 683.855 40.683C684.538 40.683 685.327 40.363 686.223 39.723C687.119 39.0403 687.973 38.2937 688.783 37.483C689.637 36.6297 690.255 35.9683 690.639 35.499C691.066 35.0297 691.471 34.5817 691.855 34.155C692.282 33.7283 692.666 33.2803 693.007 32.811C693.135 32.683 693.242 32.619 693.327 32.619C693.583 32.619 693.711 32.811 693.711 33.195C693.711 33.4083 693.626 33.6003 693.455 33.771C692.986 34.3257 692.517 34.9017 692.047 35.499C691.578 36.0537 691.087 36.6083 690.575 37.163C689.893 37.9737 689.125 38.8057 688.271 39.659C687.418 40.5123 686.501 41.2377 685.519 41.835C684.538 42.3897 683.471 42.667 682.319 42.667ZM688.663 43.051C690.498 39.6377 692.013 36.3523 693.207 33.195C694.445 29.995 695.853 26.7737 697.431 23.531C697.901 22.6777 698.498 22.1017 699.223 21.803C699.949 21.4617 700.653 21.291 701.335 21.291C701.89 21.291 702.381 21.355 702.807 21.483C702.679 21.7817 702.338 22.379 701.783 23.275C701.271 24.1283 700.717 25.1097 700.119 26.219C699.693 26.987 699.053 28.1817 698.199 29.803C697.346 31.3817 696.557 33.0243 695.831 34.731C696.215 34.2617 696.813 33.4937 697.623 32.427C698.434 31.3603 699.373 30.2083 700.439 28.971C701.506 27.691 702.615 26.475 703.767 25.323C704.962 24.1283 706.114 23.1683 707.223 22.443C708.375 21.675 709.399 21.291 710.295 21.291C710.978 21.291 711.575 21.5043 712.087 21.931C712.599 22.3577 712.855 22.9337 712.855 23.659C712.855 24.7257 712.407 25.9843 711.511 27.435C710.615 28.843 709.719 30.2297 708.823 31.595C708.653 31.851 708.333 32.3417 707.863 33.067C707.437 33.7923 706.967 34.6243 706.455 35.563C705.943 36.459 705.495 37.3337 705.111 38.187C704.77 38.9977 704.599 39.6377 704.599 40.107C704.599 40.5763 704.791 40.811 705.175 40.811C705.986 40.811 706.818 40.491 707.671 39.851C708.567 39.211 709.421 38.4857 710.231 37.675C711.042 36.8217 711.682 36.1177 712.151 35.563C712.621 35.051 713.047 34.5603 713.431 34.091C713.815 33.6217 714.199 33.1737 714.583 32.747C714.711 32.619 714.818 32.555 714.903 32.555C715.159 32.555 715.287 32.747 715.287 33.131C715.287 33.387 715.202 33.6003 715.031 33.771C714.562 34.3257 714.093 34.9017 713.623 35.499C713.154 36.0537 712.663 36.6083 712.151 37.163C711.682 37.7177 711.191 38.2723 710.679 38.827C710.21 39.339 709.719 39.8297 709.207 40.299C707.373 42.0057 705.666 42.859 704.087 42.859C703.021 42.859 702.295 42.539 701.911 41.899C701.57 41.259 701.399 40.4697 701.399 39.531C701.399 38.507 701.677 37.3977 702.231 36.203C702.786 35.0083 703.469 33.7923 704.279 32.555C705.09 31.275 705.901 30.0377 706.711 28.843C707.565 27.6483 708.269 26.5603 708.823 25.579C709.378 24.555 709.655 23.7017 709.655 23.019C709.655 22.763 709.506 22.635 709.207 22.635C708.951 22.635 708.439 22.955 707.671 23.595C706.946 24.1923 706.157 24.9177 705.303 25.771C704.45 26.5817 703.639 27.371 702.871 28.139C702.146 28.907 701.655 29.4617 701.399 29.803C700.333 30.955 699.287 32.1923 698.263 33.515C697.282 34.8377 696.343 36.1177 695.447 37.355C694.935 38.0803 694.487 38.827 694.103 39.595C693.719 40.3203 693.293 41.0883 692.823 41.899C692.61 42.283 692.311 42.5177 691.927 42.603C691.586 42.6457 691.117 42.6883 690.519 42.731C690.093 42.731 689.751 42.731 689.495 42.731C689.239 42.7737 688.962 42.8803 688.663 43.051ZM707.861 65.003C706.069 65.003 704.896 64.5763 704.341 63.723C703.744 62.8697 703.466 61.9737 703.509 61.035C703.637 59.4563 704.192 57.963 705.173 56.555C706.112 55.147 707.328 53.8243 708.821 52.587C710.314 51.3497 711.914 50.219 713.621 49.195C715.328 48.171 716.97 47.2323 718.549 46.379C720.17 45.5683 721.578 44.8643 722.773 44.267C723.968 43.6697 724.8 43.2003 725.269 42.859C725.909 40.9817 726.378 39.1897 726.677 37.483C726.976 35.7337 727.082 34.1977 726.997 32.875C726.57 33.7283 725.93 34.8377 725.077 36.203C724.266 37.5683 723.328 38.827 722.261 39.979C721.408 40.9177 720.512 41.707 719.573 42.347C718.634 42.9443 717.674 43.243 716.693 43.243C715.37 43.243 714.453 42.7737 713.941 41.835C713.429 40.8537 713.173 39.7657 713.173 38.571C713.173 38.187 713.194 37.803 713.237 37.419C713.28 37.035 713.344 36.6723 713.429 36.331C713.77 34.9657 714.282 33.6217 714.965 32.299C715.648 30.9337 716.352 29.7177 717.077 28.651C717.845 27.5417 718.485 26.7097 718.997 26.155C720.234 24.6617 721.685 23.4457 723.349 22.507C725.056 21.5257 726.784 21.035 728.533 21.035C730.325 21.035 732.01 21.6323 733.589 22.827C734.229 23.339 734.549 23.8723 734.549 24.427C734.549 25.067 734.293 25.387 733.781 25.387C733.354 25.387 733.056 25.131 732.885 24.619C732.33 23.0403 731.413 22.251 730.133 22.251C728.896 22.251 727.616 22.699 726.293 23.595C725.013 24.4483 723.776 25.579 722.581 26.987C721.386 28.395 720.298 29.8883 719.317 31.467C718.378 33.0457 717.632 34.5603 717.077 36.011C716.522 37.4617 716.245 38.6563 716.245 39.595C716.245 40.747 716.693 41.323 717.589 41.323C718.4 41.323 719.274 40.9177 720.213 40.107C721.194 39.2963 722.133 38.2937 723.029 37.099C723.925 35.8617 724.714 34.6457 725.397 33.451C726.08 32.2563 726.528 31.275 726.741 30.507C727.04 29.5683 727.402 28.9497 727.829 28.651C728.256 28.3523 728.704 28.203 729.173 28.203C729.344 28.203 729.493 28.2243 729.621 28.267C729.792 28.267 729.962 28.2883 730.133 28.331C730.176 28.5443 730.197 28.8643 730.197 29.291C730.24 29.7177 730.261 30.2297 730.261 30.827C730.261 32.0643 730.176 33.579 730.005 35.371C729.877 37.163 729.621 38.9337 729.237 40.683L729.941 40.171C731.05 39.3603 732.138 38.5283 733.205 37.675C734.272 36.8217 735.061 36.0963 735.573 35.499C736.042 35.0297 736.469 34.5817 736.853 34.155C737.237 33.7283 737.6 33.2803 737.941 32.811C738.026 32.683 738.133 32.619 738.261 32.619C738.517 32.619 738.645 32.7897 738.645 33.131C738.645 33.3443 738.538 33.5577 738.325 33.771C737.429 34.8803 736.49 36.011 735.509 37.163C735.253 37.4617 734.613 38.059 733.589 38.955C732.608 39.8083 731.562 40.619 730.453 41.387C729.898 41.8137 729.344 42.1763 728.789 42.475C727.978 45.291 726.848 48.0217 725.397 50.667C723.989 53.355 722.346 55.7657 720.469 57.899C718.592 60.075 716.586 61.803 714.453 63.083C712.32 64.363 710.122 65.003 707.861 65.003ZM707.541 63.659C709.205 63.659 710.912 63.0403 712.661 61.803C714.41 60.5657 716.096 58.9657 717.717 57.003C719.338 55.083 720.768 53.0137 722.005 50.795C723.242 48.619 724.16 46.571 724.757 44.651C724.032 45.1203 722.901 45.7177 721.365 46.443C719.872 47.211 718.208 48.107 716.373 49.131C714.538 50.155 712.789 51.2857 711.125 52.523C709.418 53.7603 707.989 55.1043 706.837 56.555C705.685 58.0483 705.066 59.6057 704.981 61.227C704.938 61.7817 705.109 62.315 705.493 62.827C705.877 63.3817 706.56 63.659 707.541 63.659Z" fill="#C1272D"/>
</svg>
