<svg width="1019" height="566" viewBox="0 0 1019 566" fill="none" xmlns="http://www.w3.org/2000/svg">
<line x1="509.5" y1="-2.18557e-08" x2="509.5" y2="178" stroke="#FF875A"/>
<line x1="511.5" y1="388" x2="511.5" y2="566" stroke="#FF875A"/>
<line x1="1018.99" y1="283.5" x2="652.993" y2="283.5" stroke="#FF875A"/>
<line x1="368" y1="283.5" x2="-4.37114e-08" y2="283.5" stroke="#FF875A"/>
<mask id="path-5-inside-1_2561_898" fill="white">
<path d="M367.993 178H652.993V388H367.993V178Z"/>
</mask>
<path d="M367.993 178V177H366.993V178H367.993ZM652.993 178H653.993V177H652.993V178ZM652.993 388V389H653.993V388H652.993ZM367.993 388H366.993V389H367.993V388ZM367.993 178V179H652.993V178V177H367.993V178ZM652.993 178H651.993V388H652.993H653.993V178H652.993ZM652.993 388V387H367.993V388V389H652.993V388ZM367.993 388H368.993V178H367.993H366.993V388H367.993Z" fill="#FF875A" mask="url(#path-5-inside-1_2561_898)"/>
<mask id="path-7-inside-2_2561_898" fill="white">
<path d="M367.993 372H383.993V388H367.993V372Z"/>
</mask>
<path d="M367.993 388H366.993V389H367.993V388ZM383.993 388V387H367.993V388V389H383.993V388ZM367.993 388H368.993V372H367.993H366.993V388H367.993Z" fill="#C1272D" mask="url(#path-7-inside-2_2561_898)"/>
<mask id="path-9-inside-3_2561_898" fill="white">
<path d="M636.993 372H652.993V388H636.993V372Z"/>
</mask>
<path d="M652.993 388V389H653.993V388H652.993ZM652.993 372H651.993V388H652.993H653.993V372H652.993ZM652.993 388V387H636.993V388V389H652.993V388Z" fill="#C1272D" mask="url(#path-9-inside-3_2561_898)"/>
<mask id="path-11-inside-4_2561_898" fill="white">
<path d="M367.993 178H383.993V194H367.993V178Z"/>
</mask>
<path d="M367.993 178V177H366.993V178H367.993ZM367.993 178V179H383.993V178V177H367.993V178ZM367.993 194H368.993V178H367.993H366.993V194H367.993Z" fill="#C1272D" mask="url(#path-11-inside-4_2561_898)"/>
<mask id="path-13-inside-5_2561_898" fill="white">
<path d="M636.993 178H652.993V194H636.993V178Z"/>
</mask>
<path d="M652.993 178H653.993V177H652.993V178ZM636.993 178V179H652.993V178V177H636.993V178ZM652.993 178H651.993V194H652.993H653.993V178H652.993Z" fill="#C1272D" mask="url(#path-13-inside-5_2561_898)"/>
</svg>
